<svg xmlns="http://www.w3.org/2000/svg" viewBox="0 0 512 512">
  <defs>
    <linearGradient id="bg" x1="0" x2="1" y1="0" y2="1">
      <stop offset="0" stop-color="#07195a"/>
      <stop offset="1" stop-color="#020b2e"/>
    </linearGradient>
    <linearGradient id="gold" x1="0" x2="1" y1="0" y2="1">
      <stop offset="0" stop-color="#fff4a3"/>
      <stop offset="0.48" stop-color="#ffd700"/>
      <stop offset="1" stop-color="#b8730a"/>
    </linearGradient>
  </defs>
  <rect width="512" height="512" rx="112" fill="url(#bg)"/>
  <circle cx="256" cy="256" r="184" fill="none" stroke="#ffd700" stroke-width="18" opacity="0.24"/>
  <g fill="url(#gold)">
    <path d="M160 112h154c18 0 32 14 32 32v270h24c10 0 18 8 18 18v18H124v-18c0-10 8-18 18-18h18V144c0-18 14-32 32-32z"/>
    <rect x="193" y="148" width="120" height="86" rx="12" fill="#061450"/>
    <rect x="202" y="158" width="102" height="68" rx="7" fill="#fff8e1" opacity="0.92"/>
    <path d="M230 276h62c8 0 14 6 14 14s-6 14-14 14h-62c-8 0-14-6-14-14s6-14 14-14z" fill="#061450" opacity="0.75"/>
  </g>
  <path d="M346 170c42 7 68 38 68 82v92c0 36-58 37-58 0v-48c0-19-12-31-31-31" fill="none" stroke="#ffd700" stroke-width="28" stroke-linecap="round" stroke-linejoin="round"/>
  <path d="M366 156l38 26-18 36-42-28z" fill="#ffd700"/>
  <path d="M188 414h140v-38H188z" fill="#061450" opacity="0.35"/>
</svg>
